# xmcd CD database file
#
# Track frame offsets:
#	150
#	31084
#	57295
#	79605
#	118173
#	159276
#	203121
#	238318
#	284205
#	314921
#
# Disc length: 4332 seconds
#
# Revision: 0
# Processed by: cddbd v1.5.2PL0 Copyright (c) Steve Scherf et al.
# Submitted via: CDex 1.51
#
DISCID=9110ea0a
DTITLE=Anthony Sherrod and Cornlickers - Red's Juke Joint Sessions 
DYEAR=2014
DGENRE=Blues
TTITLE0=Look Over Yonder Wall
TTITLE1=Done Got Lonesome Here
TTITLE2=Hey Baby, I Wanna Know
TTITLE3=You Don't Love Me
TTITLE4=The Blues Is Serious
TTITLE5=Ghetto Woman
TTITLE6=Ain't No Midnight Train (Dingo Blues remix)
TTITLE7=Have You Ever Been Mistreated
TTITLE8=Got Something On My Shoulder 
TTITLE9=Bobby and hs Wife
EXTD=YEAR: 2014
EXTT0=
EXTT1=
EXTT2=
EXTT3=
EXTT4=
EXTT5=
EXTT6=
EXTT7=
EXTT8=
EXTT9=
PLAYORDER=
